# xmcd
#
# Track frame offsets: 
#        150
#        17006
#        31436
#        46878
#        62113
#        73558
#        90767
#        102820
#        118333
#        134971
#        150721
#        163996
#        181802
#        192313
#
# Disc length: 2868 seconds
#
# Revision: 0
# Processed by: cddbd v1.5.2PL0 Copyright (c) Steve Scherf et al.
# Submitted via: ExactAudioCopyFreeDBPlugin 1.0
#
DISCID=c00b320e
DTITLE=T-K.A.S.H - Brians All Over The Streets
DYEAR=2009
DGENRE=Hip-Hop
TTITLE0=Dead Man Walking
TTITLE1=Fright Night
TTITLE2=Back Home
TTITLE3=Pardon Me
TTITLE4=Peace To My Enemies
TTITLE5=That's Gangsta
TTITLE6=Good Morning America
TTITLE7=Better Days
TTITLE8=Ol' English
TTITLE9=Sign Language
TTITLE10=American Made
TTITLE11=Someday
TTITLE12=Terror Sells
TTITLE13=So Low
EXTD=
EXTT0=
EXTT1=
EXTT2=
EXTT3=
EXTT4=
EXTT5=
EXTT6=
EXTT7=
EXTT8=
EXTT9=
EXTT10=
EXTT11=
EXTT12=
EXTT13=
PLAYORDER=
